<svg width="22" height="24" viewBox="0 0 22 24" fill="none" xmlns="http://www.w3.org/2000/svg">
<path d="M11.0628 5.02378C10.7963 5.02378 10.5812 4.82718 10.5812 4.58658V2.99358C10.5812 2.75218 10.7972 2.55618 11.0628 2.55618C11.3274 2.55618 11.5432 2.75238 11.5432 2.99358V4.58618C11.5432 4.82778 11.3274 5.02378 11.0628 5.02378Z" fill="black"/>
<path d="M5.44038 3.75182L6.67942 4.87782C6.86664 5.04842 6.86664 5.32542 6.67942 5.49602C6.49154 5.66642 6.1864 5.66642 5.99918 5.49602L4.76102 4.37002C4.5738 4.19942 4.5738 3.92262 4.76102 3.75182C4.94912 3.58082 5.25382 3.58082 5.44038 3.75182Z" fill="black"/>
<path d="M15.2396 5.49562C15.052 5.32482 15.052 5.04802 15.2396 4.87742L16.4776 3.75082C16.665 3.58082 16.9708 3.58082 17.1574 3.75082C17.3448 3.92182 17.3448 4.19862 17.1574 4.36942L15.9194 5.49562C15.7318 5.66642 15.4271 5.66642 15.2396 5.49562Z" fill="black"/>
<path d="M11.0628 14.9762C10.7963 14.9762 10.5812 15.1726 10.5812 15.4134V17.0064C10.5812 17.248 10.7972 17.4438 11.0628 17.4438C11.3274 17.4438 11.5432 17.2476 11.5432 17.0064V15.414C11.5432 15.1724 11.3274 14.9762 11.0628 14.9762Z" fill="black"/>
<path d="M5.44038 16.2484L6.67942 15.1222C6.86664 14.9514 6.86664 14.6748 6.67942 14.504C6.49154 14.3338 6.1864 14.3338 5.99918 14.504L4.76102 15.6304C4.5738 15.8008 4.5738 16.0776 4.76102 16.2484C4.94912 16.4192 5.25382 16.4192 5.44038 16.2484Z" fill="black"/>
<path d="M15.2396 14.5046C15.052 14.6754 15.052 14.9522 15.2396 15.1226L16.4776 16.2492C16.665 16.4192 16.9708 16.4192 17.1574 16.2492C17.3448 16.0784 17.3448 15.8014 17.1574 15.6306L15.9194 14.5046C15.7318 14.3336 15.4271 14.3336 15.2396 14.5046Z" fill="black"/>
<path d="M1.42834 9.99941C1.42834 10.242 1.6446 10.4372 1.90926 10.4372H3.66156C3.9271 10.4372 4.14248 10.241 4.14248 9.99941C4.14248 9.75901 3.92666 9.56281 3.66156 9.56281H1.90992C1.64438 9.56281 1.42834 9.75881 1.42834 9.99941Z" fill="black"/>
<path d="M17.8575 9.99941C17.8575 10.242 18.0738 10.4372 18.3387 10.4372H20.0908C20.3565 10.4372 20.5719 10.241 20.5719 9.99941C20.5719 9.75901 20.3561 9.56281 20.0908 9.56281H18.3391C18.0731 9.56281 17.8575 9.75881 17.8575 9.99941Z" fill="black"/>
<path d="M6.00232 10C6.0098 10.1316 6.07624 10.2742 6.19482 10.4126C6.92764 11.259 8.87772 12.865 10.999 12.865C13.1198 12.865 15.0703 11.2594 15.8053 10.4104C15.9241 10.2734 15.9905 10.1316 15.998 10.0002C15.9903 9.86882 15.9239 9.72722 15.8051 9.58962C15.0703 8.74102 13.1202 7.13542 11.0012 7.13542C8.87838 7.13542 6.92742 8.74102 6.19262 9.58982C6.07624 9.72602 6.0098 9.86822 6.00232 10ZM10.999 13.8542C9.8928 13.8542 8.7015 13.4988 7.55354 12.8258C6.72128 12.3382 5.89254 11.6636 5.33726 11.0216C5.06952 10.7086 4.92388 10.3602 4.91398 10.0128C4.91376 10.0042 4.91376 9.99562 4.91398 9.98682C4.92388 9.63922 5.06952 9.29082 5.33528 8.98022C5.89276 8.33622 6.72172 7.66182 7.55508 7.17382C8.70326 6.50122 9.895 6.14542 11.0012 6.14542C12.1064 6.14542 13.2969 6.50102 14.4442 7.17402C15.2764 7.66162 16.1049 8.33622 16.6604 8.97782C16.9293 9.28902 17.0762 9.63782 17.0864 9.98702C17.0866 9.99582 17.0866 10.0046 17.0864 10.013C17.0762 10.3624 16.9293 10.7112 16.6611 11.0214C16.1049 11.6638 15.276 12.3384 14.4439 12.8258C13.2964 13.4988 12.1049 13.8542 10.999 13.8542Z" fill="black"/>
<path d="M11.7698 10.701C11.3441 11.088 10.6538 11.088 10.2278 10.701C9.80215 10.3138 9.80215 9.68619 10.2278 9.29899C10.6538 8.91199 11.3443 8.91199 11.7698 9.29899C12.196 9.68619 12.196 10.3138 11.7698 10.701ZM12.401 8.72539C11.6264 8.02139 10.3711 8.02139 9.59667 8.72539C8.82227 9.42959 8.82227 10.5706 9.59667 11.2744C10.3711 11.9786 11.6264 11.9786 12.401 11.2744C13.1754 10.5706 13.1754 9.42939 12.401 8.72539Z" fill="black"/>
</svg>
