<svg width="10" height="11" viewBox="0 0 10 11" fill="none" xmlns="http://www.w3.org/2000/svg">
<path fill-rule="evenodd" clip-rule="evenodd" d="M5.41671 1.96751V5.8006C5.41671 6.02118 5.23176 6.2 5.00004 6.2C4.76992 6.2 4.58337 6.021 4.58337 5.8006V1.96621L4.11277 2.418C3.95155 2.57277 3.69008 2.57269 3.52623 2.41539C3.36351 2.25918 3.36447 2.00499 3.52351 1.85231L4.70746 0.715724C4.78762 0.638767 4.89257 0.600095 4.99798 0.6L5.00116 0.601195C5.10698 0.601411 5.2122 0.639808 5.29128 0.715724L6.47522 1.85231C6.63644 2.00708 6.63636 2.25809 6.47251 2.41539C6.30979 2.5716 6.04501 2.57068 5.88597 2.418L5.41671 1.96751ZM1.66671 8H8.33337V5.19816C8.33337 4.97826 8.51832 4.8 8.75004 4.8C8.98016 4.8 9.16671 4.97964 9.16671 5.19816V8.40184C9.16671 8.5117 9.12055 8.61117 9.04545 8.68321C8.96924 8.75548 8.86547 8.8 8.75061 8.8H1.24948C1.13489 8.8 1.03112 8.75586 0.955871 8.68402C0.879935 8.61048 0.833374 8.51101 0.833374 8.40184V5.19816C0.833374 4.97826 1.01832 4.8 1.25004 4.8C1.48016 4.8 1.66671 4.97964 1.66671 5.19816V8Z" fill="black"/>
</svg>
