<svg width="12" height="12" viewBox="0 0 12 12" xmlns="http://www.w3.org/2000/svg" fill="currentColor">
<g clip-path="url(#clip0)">
<path d="M11.3354 3.48L10.8074 3C8.18939 5.38 3.92139 5.38 1.30339 3L0.775391 3.48C2.22739 4.8 4.14139 5.46 6.05539 5.46C7.96939 5.46 9.88339 4.8 11.3354 3.48Z" />
<path d="M6.0554 6.34C5.8574 6.34 5.6814 6.5 5.6814 6.68V8.38C5.6814 8.56 5.8574 8.71999 6.0554 8.71999C6.2534 8.71999 6.4294 8.56 6.4294 8.38V6.68C6.4294 6.5 6.2534 6.34 6.0554 6.34Z" />
<path d="M8.80546 6.11999C8.73946 5.93999 8.54146 5.84 8.34346 5.9C8.14546 5.96 8.03546 6.13999 8.10146 6.31999L8.67346 7.94C8.71746 8.08 8.87146 8.18 9.02546 8.18C9.06946 8.18 9.09146 8.18 9.13546 8.16C9.33347 8.1 9.44347 7.92 9.37747 7.74L8.80546 6.11999Z" />
<path d="M11.9955 6.43999L10.6755 5.24C10.5215 5.1 10.3015 5.1 10.1475 5.24C9.99348 5.38 9.99348 5.57999 10.1475 5.71999L11.4675 6.91999C11.5335 6.97999 11.6435 7.01999 11.7315 7.01999C11.8195 7.01999 11.9295 6.97999 11.9955 6.91999C12.1495 6.77999 12.1495 6.57999 11.9955 6.43999Z" />
<path d="M3.78939 5.91999C3.59139 5.85999 3.37139 5.96 3.32739 6.14L2.75539 7.76C2.68939 7.94 2.79939 8.14 2.99739 8.18C3.04139 8.2 3.06339 8.2 3.10739 8.2C3.26139 8.2 3.41539 8.1 3.45939 7.96L4.03139 6.34C4.09739 6.16 3.98739 5.97999 3.78939 5.91999Z" />
<path d="M1.4355 5.26L0.1155 6.46C-0.0385 6.6 -0.0385 6.8 0.1155 6.94C0.1815 7 0.291499 7.04 0.379499 7.04C0.4675 7.04 0.577499 7 0.643499 6.94L1.9635 5.74C2.1175 5.6 2.1175 5.4 1.9635 5.26C1.8315 5.12 1.5895 5.12 1.4355 5.26Z" />
</g>
<defs>
<clipPath id="clip0">
<rect width="12" height="12" fill="white"/>
</clipPath>
</defs>
</svg>
