<svg width="20" height="15" viewBox="0 0 20 15" fill="currentColor" xmlns="http://www.w3.org/2000/svg">
<path d="M9.63441 2.4676C9.36799 2.4676 9.15283 2.271 9.15283 2.0304V0.4374C9.15283 0.196 9.36887 0 9.63441 0C9.89907 0 10.1149 0.1962 10.1149 0.4374V2.03C10.1149 2.2716 9.89907 2.4676 9.63441 2.4676Z"/>
<path d="M4.01204 1.19563L5.25108 2.32163C5.4383 2.49223 5.4383 2.76923 5.25108 2.93983C5.0632 3.11023 4.75806 3.11023 4.57084 2.93983L3.33268 1.81383C3.14546 1.64323 3.14546 1.36643 3.33268 1.19563C3.52078 1.02463 3.82548 1.02463 4.01204 1.19563Z"/>
<path d="M13.8113 2.93944C13.6236 2.76864 13.6236 2.49184 13.8113 2.32124L15.0492 1.19464C15.2367 1.02464 15.5425 1.02464 15.729 1.19464C15.9165 1.36564 15.9165 1.64244 15.729 1.81324L14.4911 2.93944C14.3034 3.11024 13.9987 3.11024 13.8113 2.93944Z"/>
<path d="M9.63441 12.42C9.36799 12.42 9.15283 12.6164 9.15283 12.8572V14.4502C9.15283 14.6918 9.36887 14.8876 9.63441 14.8876C9.89907 14.8876 10.1149 14.6914 10.1149 14.4502V12.8578C10.1149 12.6162 9.89907 12.42 9.63441 12.42Z"/>
<path d="M4.01204 13.6922L5.25108 12.566C5.4383 12.3952 5.4383 12.1186 5.25108 11.9478C5.0632 11.7776 4.75806 11.7776 4.57084 11.9478L3.33268 13.0742C3.14546 13.2446 3.14546 13.5214 3.33268 13.6922C3.52078 13.863 3.82548 13.863 4.01204 13.6922Z"/>
<path d="M13.8113 11.9484C13.6236 12.1192 13.6236 12.396 13.8113 12.5664L15.0492 13.693C15.2367 13.863 15.5425 13.863 15.729 13.693C15.9165 13.5222 15.9165 13.2452 15.729 13.0744L14.4911 11.9484C14.3034 11.7774 13.9987 11.7774 13.8113 11.9484Z"/>
<path d="M0 7.44322C0 7.68582 0.21626 7.88102 0.48092 7.88102H2.23322C2.49876 7.88102 2.71414 7.68482 2.71414 7.44322C2.71414 7.20282 2.49832 7.00662 2.23322 7.00662H0.48158C0.21604 7.00662 0 7.20262 0 7.44322Z"/>
<path d="M16.4292 7.44322C16.4292 7.68582 16.6455 7.88102 16.9103 7.88102H18.6624C18.9282 7.88102 19.1436 7.68482 19.1436 7.44322C19.1436 7.20282 18.9277 7.00662 18.6624 7.00662H16.9108C16.6448 7.00662 16.4292 7.20262 16.4292 7.44322Z"/>
<path d="M4.57398 7.44383C4.58146 7.57543 4.6479 7.71803 4.76648 7.85643C5.4993 8.70283 7.44938 10.3088 9.57062 10.3088C11.6914 10.3088 13.6419 8.70323 14.377 7.85423C14.4958 7.71723 14.5622 7.57543 14.5697 7.44403C14.562 7.31263 14.4955 7.17103 14.3767 7.03343C13.6419 6.18483 11.6919 4.57923 9.57282 4.57923C7.45004 4.57923 5.49908 6.18483 4.76428 7.03363C4.6479 7.16983 4.58146 7.31203 4.57398 7.44383ZM9.57062 11.298C8.46446 11.298 7.27316 10.9426 6.1252 10.2696C5.29294 9.78203 4.4642 9.10743 3.90892 8.46543C3.64118 8.15243 3.49554 7.80403 3.48564 7.45663C3.48542 7.44803 3.48542 7.43943 3.48564 7.43063C3.49554 7.08303 3.64118 6.73463 3.90694 6.42403C4.46442 5.78003 5.29338 5.10563 6.12674 4.61763C7.27492 3.94503 8.46666 3.58923 9.57282 3.58923C10.6781 3.58923 11.8685 3.94483 13.0158 4.61783C13.8481 5.10543 14.6766 5.78003 15.2321 6.42163C15.5009 6.73283 15.6479 7.08163 15.658 7.43083C15.6582 7.43963 15.6582 7.44843 15.658 7.45683C15.6479 7.80623 15.5009 8.15503 15.2328 8.46523C14.6766 9.10763 13.8476 9.78223 13.0156 10.2696C11.8681 10.9426 10.6766 11.298 9.57062 11.298Z"/>
<path d="M10.3415 8.14481C9.91578 8.5318 9.22542 8.5318 8.7995 8.14481C8.3738 7.75761 8.3738 7.13 8.7995 6.7428C9.22542 6.3558 9.916 6.3558 10.3415 6.7428C10.7676 7.13 10.7676 7.75761 10.3415 8.14481ZM10.9727 6.1692C10.198 5.4652 8.94272 5.4652 8.16832 6.1692C7.39392 6.8734 7.39392 8.01441 8.16832 8.71821C8.94272 9.4224 10.198 9.4224 10.9727 8.71821C11.7471 8.01441 11.7471 6.8732 10.9727 6.1692Z"/>
</svg>
