<svg width="12" height="12" viewBox="0 0 12 12" fill="currentColor" xmlns="http://www.w3.org/2000/svg">
<path fill-rule="evenodd" clip-rule="evenodd" d="M6.19638 8.67445L8.82455 6.37413C9.03235 6.19226 9.05336 5.87637 8.87149 5.66858C8.8569 5.65192 8.84122 5.63624 8.82455 5.62165L6.1803 3.30724C5.98163 3.13335 5.68198 3.1439 5.49603 3.33133L5.49368 3.33371C5.31867 3.51011 5.31981 3.795 5.49622 3.97002C5.50155 3.9753 5.50699 3.98046 5.51257 3.98547L7.19788 5.49789H0.5C0.223857 5.49789 0 5.72175 0 5.99789C0 6.27403 0.223857 6.49789 0.5 6.49789H7.19788L5.53516 7.93894C5.33292 8.11422 5.31105 8.42025 5.48633 8.62248C5.48874 8.62527 5.4912 8.62803 5.49368 8.63076L5.49683 8.63422C5.68005 8.83612 5.99122 8.85401 6.19638 8.67445ZM4.5 2.5C4.77614 2.5 5 2.27614 5 2V1H10.5C10.7761 1 11 1.22386 11 1.5V10.5C11 10.7761 10.7761 11 10.5 11H5V10C5 9.72386 4.77614 9.5 4.5 9.5C4.22386 9.5 4 9.72386 4 10V11C4 11.5 4.49999 12 5.00604 12C6.33803 12 8.33602 12 11 12C11.5 12 12 11.5 12 11V1C12 0.5 11.5 0 11 0H5C4.499 0 4 0.5 4 1V2C4 2.27614 4.22386 2.5 4.5 2.5Z" />
</svg>
