<svg width="91" height="30" viewBox="0 0 91 30" fill="none" xmlns="http://www.w3.org/2000/svg">
<g clip-path="url(#clip0)">
<path d="M40.04 20H37.88V13.28H34.88V20H32.72V11.6H40.04V20ZM47.8456 18.2C47.8456 18.8 47.6736 19.272 47.3296 19.616C46.9936 19.952 46.5256 20.12 45.9256 20.12H43.1656C42.5656 20.12 42.0936 19.952 41.7496 19.616C41.4136 19.272 41.2456 18.8 41.2456 18.2V15.44C41.2456 14.84 41.4136 14.372 41.7496 14.036C42.0936 13.692 42.5656 13.52 43.1656 13.52H45.9256C46.5256 13.52 46.9936 13.692 47.3296 14.036C47.6736 14.372 47.8456 14.84 47.8456 15.44V18.2ZM45.7456 15.62C45.7456 15.3 45.5856 15.14 45.2656 15.14H43.8256C43.5056 15.14 43.3456 15.3 43.3456 15.62V18.02C43.3456 18.34 43.5056 18.5 43.8256 18.5H45.2656C45.5856 18.5 45.7456 18.34 45.7456 18.02V15.62ZM53.1842 15.98V13.64H55.2842V20H53.1842V17.6H51.0242V20H48.9242V13.64H51.0242V15.98H53.1842ZM60.6228 13.64H62.8428V20H60.7428V16.52L58.7028 20H56.4828V13.64H58.5828V17.12L60.6228 13.64ZM68.9014 18.92H67.3414L66.1414 16.76V20H64.0414V13.64H66.2614L68.1214 17L69.9814 13.64H72.2014V20H70.1014V16.76L68.9014 18.92ZM75.9247 18.44C76.3487 18.44 76.8287 18.36 77.3647 18.2V17.48H75.6247C75.5047 17.48 75.4047 17.52 75.3247 17.6C75.2447 17.68 75.2047 17.78 75.2047 17.9V18.02C75.2047 18.14 75.2447 18.24 75.3247 18.32C75.4047 18.4 75.5047 18.44 75.6247 18.44H75.9247ZM73.7047 13.76C75.1687 13.6 76.4887 13.52 77.6647 13.52C78.2087 13.52 78.6447 13.684 78.9727 14.012C79.3007 14.34 79.4647 14.776 79.4647 15.32V20H77.6047L77.4847 19.4C77.1087 19.648 76.7207 19.832 76.3207 19.952C75.9287 20.064 75.5967 20.12 75.3247 20.12H74.9047C74.3607 20.12 73.9247 19.956 73.5967 19.628C73.2687 19.3 73.1047 18.864 73.1047 18.32V17.78C73.1047 17.236 73.2687 16.8 73.5967 16.472C73.9247 16.144 74.3607 15.98 74.9047 15.98H77.3647V15.5C77.3647 15.38 77.3247 15.28 77.2447 15.2C77.1647 15.12 77.0647 15.08 76.9447 15.08C76.4247 15.08 75.8487 15.104 75.2167 15.152C74.5927 15.2 74.0887 15.236 73.7047 15.26V13.76ZM83.5414 15.98V15.44C83.5414 14.84 83.7094 14.372 84.0454 14.036C84.3894 13.692 84.8614 13.52 85.4614 13.52H87.7414C88.3414 13.52 88.8094 13.692 89.1454 14.036C89.4894 14.372 89.6614 14.84 89.6614 15.44V18.2C89.6614 18.8 89.4894 19.272 89.1454 19.616C88.8094 19.952 88.3414 20.12 87.7414 20.12H85.4614C84.8614 20.12 84.3894 19.952 84.0454 19.616C83.7094 19.272 83.5414 18.8 83.5414 18.2V17.6H82.6414V20H80.5414V13.64H82.6414V15.98H83.5414ZM87.5614 15.62C87.5614 15.3 87.4014 15.14 87.0814 15.14H86.1214C85.8014 15.14 85.6414 15.3 85.6414 15.62V18.02C85.6414 18.34 85.8014 18.5 86.1214 18.5H87.0814C87.4014 18.5 87.5614 18.34 87.5614 18.02V15.62Z" fill="black"/>
<path d="M11.0628 11.0238C10.7963 11.0238 10.5812 10.8272 10.5812 10.5866V8.99358C10.5812 8.75218 10.7972 8.55618 11.0628 8.55618C11.3274 8.55618 11.5432 8.75238 11.5432 8.99358V10.5862C11.5432 10.8278 11.3274 11.0238 11.0628 11.0238Z" fill="black"/>
<path d="M5.44038 9.75182L6.67942 10.8778C6.86664 11.0484 6.86664 11.3254 6.67942 11.496C6.49154 11.6664 6.1864 11.6664 5.99918 11.496L4.76102 10.37C4.5738 10.1994 4.5738 9.92262 4.76102 9.75182C4.94912 9.58082 5.25382 9.58082 5.44038 9.75182Z" fill="black"/>
<path d="M15.2396 11.4956C15.052 11.3248 15.052 11.048 15.2396 10.8774L16.4776 9.75082C16.665 9.58082 16.9708 9.58082 17.1574 9.75082C17.3448 9.92182 17.3448 10.1986 17.1574 10.3694L15.9194 11.4956C15.7318 11.6664 15.4271 11.6664 15.2396 11.4956Z" fill="black"/>
<path d="M11.0628 20.9762C10.7963 20.9762 10.5812 21.1726 10.5812 21.4134V23.0064C10.5812 23.248 10.7972 23.4438 11.0628 23.4438C11.3274 23.4438 11.5432 23.2476 11.5432 23.0064V21.414C11.5432 21.1724 11.3274 20.9762 11.0628 20.9762Z" fill="black"/>
<path d="M5.44038 22.2484L6.67942 21.1222C6.86664 20.9514 6.86664 20.6748 6.67942 20.504C6.49154 20.3338 6.1864 20.3338 5.99918 20.504L4.76102 21.6304C4.5738 21.8008 4.5738 22.0776 4.76102 22.2484C4.94912 22.4192 5.25382 22.4192 5.44038 22.2484Z" fill="black"/>
<path d="M15.2396 20.5046C15.052 20.6754 15.052 20.9522 15.2396 21.1226L16.4776 22.2492C16.665 22.4192 16.9708 22.4192 17.1574 22.2492C17.3448 22.0784 17.3448 21.8014 17.1574 21.6306L15.9194 20.5046C15.7318 20.3336 15.4271 20.3336 15.2396 20.5046Z" fill="black"/>
<path d="M1.42834 15.9994C1.42834 16.242 1.6446 16.4372 1.90926 16.4372H3.66156C3.9271 16.4372 4.14248 16.241 4.14248 15.9994C4.14248 15.759 3.92666 15.5628 3.66156 15.5628H1.90992C1.64438 15.5628 1.42834 15.7588 1.42834 15.9994Z" fill="black"/>
<path d="M17.8575 15.9994C17.8575 16.242 18.0738 16.4372 18.3387 16.4372H20.0908C20.3565 16.4372 20.5719 16.241 20.5719 15.9994C20.5719 15.759 20.3561 15.5628 20.0908 15.5628H18.3391C18.0731 15.5628 17.8575 15.7588 17.8575 15.9994Z" fill="black"/>
<path d="M6.00232 16C6.0098 16.1316 6.07624 16.2742 6.19482 16.4126C6.92764 17.259 8.87772 18.865 10.999 18.865C13.1198 18.865 15.0703 17.2594 15.8053 16.4104C15.9241 16.2734 15.9905 16.1316 15.998 16.0002C15.9903 15.8688 15.9239 15.7272 15.8051 15.5896C15.0703 14.741 13.1202 13.1354 11.0012 13.1354C8.87838 13.1354 6.92742 14.741 6.19262 15.5898C6.07624 15.726 6.0098 15.8682 6.00232 16ZM10.999 19.8542C9.8928 19.8542 8.7015 19.4988 7.55354 18.8258C6.72128 18.3382 5.89254 17.6636 5.33726 17.0216C5.06952 16.7086 4.92388 16.3602 4.91398 16.0128C4.91376 16.0042 4.91376 15.9956 4.91398 15.9868C4.92388 15.6392 5.06952 15.2908 5.33528 14.9802C5.89276 14.3362 6.72172 13.6618 7.55508 13.1738C8.70326 12.5012 9.895 12.1454 11.0012 12.1454C12.1064 12.1454 13.2969 12.501 14.4442 13.174C15.2764 13.6616 16.1049 14.3362 16.6604 14.9778C16.9293 15.289 17.0762 15.6378 17.0864 15.987C17.0866 15.9958 17.0866 16.0046 17.0864 16.013C17.0762 16.3624 16.9293 16.7112 16.6611 17.0214C16.1049 17.6638 15.276 18.3384 14.4439 18.8258C13.2964 19.4988 12.1049 19.8542 10.999 19.8542Z" fill="black"/>
<path d="M11.7698 16.701C11.3441 17.088 10.6538 17.088 10.2278 16.701C9.80215 16.3138 9.80215 15.6862 10.2278 15.299C10.6538 14.912 11.3443 14.912 11.7698 15.299C12.196 15.6862 12.196 16.3138 11.7698 16.701ZM12.401 14.7254C11.6264 14.0214 10.3711 14.0214 9.59667 14.7254C8.82227 15.4296 8.82227 16.5706 9.59667 17.2744C10.3711 17.9786 11.6264 17.9786 12.401 17.2744C13.1754 16.5706 13.1754 15.4294 12.401 14.7254Z" fill="black"/>
</g>
<defs>
<clipPath id="clip0">
<rect width="91" height="30" fill="white"/>
</clipPath>
</defs>
</svg>
