<svg width="12" height="12" viewBox="0 0 12 12" fill="currentColor" xmlns="http://www.w3.org/2000/svg">
<path d="M9.57727 0.00906594C9.49267 -0.00682767 9.40546 -0.00176753 9.32326 0.0238026C9.24106 0.0493726 9.16636 0.0946716 9.10569 0.155756L0.652805 8.60879C0.580557 8.68291 0.531706 8.77666 0.512336 8.87835L0.0107024 11.3667C-0.00680436 11.4523 -0.00278416 11.5409 0.022402 11.6245C0.0475881 11.7082 0.0931519 11.7843 0.155002 11.846C0.216853 11.9077 0.293053 11.953 0.376763 11.978C0.460472 12.003 0.54907 12.0068 0.634601 11.989L3.11785 11.4882C3.22061 11.4685 3.31515 11.4185 3.38947 11.3448L11.8424 2.89182C11.8921 2.84288 11.9317 2.78456 11.9587 2.72022C11.9858 2.65588 11.9998 2.58681 12 2.51701C12.0002 2.44721 11.9865 2.37806 11.9598 2.31358C11.9331 2.2491 11.8938 2.19057 11.8443 2.14137L9.85209 0.15099C9.77672 0.0772795 9.681 0.0278462 9.57727 0.00906594ZM9.48268 1.27517L10.7252 2.51844L2.76019 10.4878L1.20369 10.7989L1.51097 9.24841L9.48268 1.27517Z"/>
</svg>
